<?xml version="1.0" encoding="utf-8"?>
<!-- Generator: Adobe Illustrator 16.0.1, SVG Export Plug-In . SVG Version: 6.00 Build 0)  -->
<!DOCTYPE svg PUBLIC "-//W3C//DTD SVG 1.1//EN" "http://www.w3.org/Graphics/SVG/1.1/DTD/svg11.dtd">
<svg version="1.1" id="Layer_1" xmlns="http://www.w3.org/2000/svg" xmlns:xlink="http://www.w3.org/1999/xlink" x="0px" y="0px"
	 width="110px" height="93px" viewBox="0 0 110 93" enable-background="new 0 0 110 93" xml:space="preserve">
<g>
	<path fill="#EFC6B5" d="M1.742,90.999V79.538h4.413c3.564,0,5.346,1.912,5.346,5.734c0,3.818-1.781,5.727-5.346,5.727H1.742z
		 M6.155,88.716c2.032-0.004,3.05-1.152,3.056-3.443c-0.006-2.29-1.023-3.436-3.056-3.436H4.034v6.879H6.155z"/>
	<path fill="#EFC6B5" d="M16.118,90.999V79.554l8.415-0.006v2.136h-6.124v2.444h4.589v2.129h-4.589v2.605h6.108v2.137H16.118z"/>
	<path fill="#EFC6B5" d="M35.142,79.929c0.585,0.254,1.132,0.636,1.641,1.144l-1.527,1.528c-0.509-0.61-1.222-0.917-2.138-0.917
		s-1.502,0.218-1.756,0.649c-0.255,0.433-0.255,0.802,0,1.107c0.254,0.305,0.84,0.534,1.756,0.688
		c0.967,0.102,1.846,0.42,2.635,0.955c0.789,0.534,1.183,1.386,1.183,2.557c0,0.916-0.421,1.705-1.263,2.367
		c-0.843,0.663-1.824,0.992-2.944,0.992c-1.064,0-1.953-0.151-2.665-0.457c-0.712-0.305-1.323-0.713-1.832-1.222l1.527-1.527
		c0.509,0.611,1.374,0.968,2.596,1.069c1.02,0,1.653-0.218,1.905-0.65c0.253-0.432,0.253-0.865,0-1.297
		c-0.252-0.434-0.886-0.701-1.905-0.803c-0.916-0.102-1.756-0.381-2.519-0.84c-0.765-0.457-1.146-1.246-1.146-2.366
		c0-1.013,0.435-1.827,1.302-2.441c0.868-0.612,1.761-0.917,2.677-0.917C33.73,79.548,34.556,79.673,35.142,79.929z"/>
	<path fill="#EFC6B5" d="M41.083,79.538h2.284v11.461h-2.284V79.538z"/>
	<path fill="#EFC6B5" d="M49.507,89.354c-1.097-1.092-1.646-2.459-1.646-4.105c0.006-1.607,0.556-2.961,1.648-4.059
		c1.095-1.096,2.452-1.643,4.069-1.643c1.635,0,3.037,0.508,4.207,1.524l-1.526,1.673c-0.778-0.61-1.673-0.916-2.681-0.916
		c-1.027,0.005-1.855,0.325-2.483,0.962c-0.629,0.636-0.944,1.45-0.944,2.442c0.007,1.065,0.324,1.91,0.955,2.535
		c0.632,0.627,1.461,0.94,2.488,0.94c0.825,0,1.459-0.163,1.9-0.488v-1.964l-1.525,0.01v-2.139h3.816v5.344
		c-1.165,1.02-2.567,1.527-4.207,1.527C51.962,90.995,50.604,90.447,49.507,89.354z"/>
	<path fill="#EFC6B5" d="M62.908,90.999V79.548h0.763l7.178,7.176v-7.176h2.289v11.451h-0.839l-7.101-7.1v7.1H62.908z"/>
</g>
<g>
	<path fill="#EFC6B5" d="M50.265,71.827l2.369,0.016l-5.628-11.605l-5.777,11.6l2.35,0.006l0.858-1.785h4.979L50.265,71.827z
		 M45.569,67.712l1.361-2.827l1.357,2.827H45.569z"/>
	<path fill="#EFC6B5" d="M10.047,65.563c1.003,0.673,1.534,1.546,1.596,2.619c-0.102,2.159-1.255,3.301-3.46,3.43l-6.443-0.009
		V60.157h6.077c1.93,0.111,2.947,1.234,3.055,3.369C10.836,64.544,10.561,65.224,10.047,65.563z M4.037,64.747h3.208
		c0.921-0.016,1.394-0.492,1.42-1.428c-0.026-0.561-0.492-0.855-1.397-0.887h-3.23V64.747z M4.037,69.817h3.741
		c1.074-0.016,1.624-0.568,1.65-1.657c-0.026-0.733-0.569-1.115-1.627-1.146H4.037V69.817z"/>
	<path fill="#EFC6B5" d="M15.825,60.151h2.29v4.58l3.818-4.58h2.572l-4.48,5.344l5.42,6.108h-2.978l-4.353-4.948v4.948h-2.29V60.151
		z"/>
	<path fill="#EFC6B5" d="M36.749,65.563c1.002,0.673,1.535,1.546,1.596,2.619c-0.103,2.159-1.255,3.301-3.459,3.43l-6.445-0.009
		V60.157h6.079c1.929,0.111,2.947,1.234,3.054,3.369C37.538,64.544,37.263,65.224,36.749,65.563z M30.739,64.747h3.207
		c0.922-0.016,1.395-0.492,1.421-1.428c-0.026-0.561-0.491-0.855-1.398-0.887h-3.229V64.747z M30.739,69.817h3.741
		c1.074-0.016,1.624-0.568,1.649-1.657c-0.025-0.733-0.567-1.115-1.627-1.146h-3.764V69.817z"/>
	<path fill="#EFC6B5" d="M63.339,66.61l2.857,4.993h-2.628l-2.741-4.733h-2.092v4.733h-2.291V60.151h4.994
		c2.673,0,4.009,1.098,4.009,3.297C65.447,65.103,64.745,66.157,63.339,66.61z M58.735,64.731h3.207
		c0.921-0.016,1.395-0.434,1.42-1.26c-0.025-0.754-0.491-1.145-1.396-1.176h-3.23V64.731z"/>
	<path fill="#EFC6B5" d="M79.147,60.151v2.137h-3.818v9.315h-2.291v-9.315h-3.817v-2.137H79.147z"/>
	<path fill="#EFC6B5" d="M98.028,71.604V60.151h0.765l7.177,7.176v-7.176h2.291v11.452h-0.84l-7.101-7.101v7.101H98.028z"/>
	<path fill="#EFC6B5" d="M87.702,59.766c-3.373,0-6.109,2.733-6.109,6.108c0,3.374,2.736,6.108,6.109,6.108s6.107-2.734,6.107-6.108
		C93.81,62.499,91.075,59.766,87.702,59.766z M87.734,69.757c-2.149,0-3.892-1.742-3.892-3.892s1.742-3.892,3.892-3.892
		c2.15,0,3.893,1.742,3.893,3.892S89.885,69.757,87.734,69.757z"/>
</g>
<path fill="#EFC6B5" d="M1.739,1v37.189h86.1V1H1.739z M26.375,27.293H10.741V11.663h15.634V27.293z M51.983,27.293H36.347V11.663
	h15.637V27.293z M77.587,27.293H61.954V11.663h15.633V27.293z"/>
<line stroke="#EFC6B5" stroke-width="2.1385" stroke-miterlimit="10" x1="1.739" y1="43.78" x2="108.261" y2="43.78"/>
<line stroke="#EFC6B5" stroke-width="2.1385" stroke-miterlimit="10" x1="1.739" y1="51.095" x2="108.261" y2="51.095"/>
</svg>
